<svg viewBox="0 0 24 18">
  <path
    d="M3.632,39.263a2.421,2.421,0,1,0-2.421-2.421A2.423,2.423,0,0,0,3.632,39.263Zm16.948,0a2.421,2.421,0,1,0-2.421-2.421A2.423,2.423,0,0,0,20.58,39.263Zm1.211,1.211H19.369a2.414,2.414,0,0,0-1.706.7A5.534,5.534,0,0,1,20.5,45.316H23a1.209,1.209,0,0,0,1.211-1.211V42.9A2.423,2.423,0,0,0,21.79,40.474Zm-9.685,0a4.237,4.237,0,1,0-4.237-4.237A4.235,4.235,0,0,0,12.106,40.474Zm2.905,1.211H14.7a5.85,5.85,0,0,1-5.183,0H9.2a4.359,4.359,0,0,0-4.358,4.358v1.09a1.816,1.816,0,0,0,1.816,1.816h10.9a1.816,1.816,0,0,0,1.816-1.816v-1.09A4.359,4.359,0,0,0,15.011,41.685Zm-8.463-.507a2.414,2.414,0,0,0-1.706-.7H2.421A2.423,2.423,0,0,0,0,42.9v1.211a1.209,1.209,0,0,0,1.211,1.211H3.7A5.547,5.547,0,0,1,6.548,41.178Z"
    transform="translate(0 -30)" stroke-width="1.5" />
</svg>
