<svg xmlns="http://www.w3.org/2000/svg" viewBox="0 0 53.25 43.07"><g id="Layer_2" data-name="Layer 2"><g id="Layer_1-2" data-name="Layer 1"><path d="M0,22.06a15.64,15.64,0,0,1,1-2.67,6.94,6.94,0,0,1,6.91-3.63,7.54,7.54,0,0,1,7.31,7.74c0,1.19,0,2.39,0,3.66H33.32a3.23,3.23,0,0,1,3.27,2.09,3.16,3.16,0,0,1-3.18,4.21H25.82c-3.35,0-6.7,0-10,0a3.93,3.93,0,0,1-3.24-1.41c-1.74-2-3.56-3.92-5.35-5.88-.13-.14-.25-.34-.41-.39a.77.77,0,0,0-.64.05c-.12.11-.1.42-.08.63s.17.22.26.32l5.79,6.33a3.87,3.87,0,0,0,3,1.33v8.61H0Z"/><path d="M22.3,7.86A7.87,7.87,0,1,1,14.42,0,7.85,7.85,0,0,1,22.3,7.86Z"/><path d="M34.39,37.13h-11a1.42,1.42,0,0,1-1.59-1.4,1.38,1.38,0,0,1,1.26-1.4c.21,0,.42,0,.63,0H44a.66.66,0,0,0,.75-.55c1.88-5.54,3.79-11.07,5.68-16.6a1.55,1.55,0,0,1,1-1.15,1.41,1.41,0,0,1,1.73,1.78c-.56,1.66-1.13,3.31-1.69,5q-2.23,6.51-4.46,13a1.61,1.61,0,0,1-1.87,1.35Z"/><path d="M50,38.14v3.67l-.55,0H17.7c-1.23,0-1.72-.5-1.72-1.74a5.93,5.93,0,0,1,0-.73,1.35,1.35,0,0,1,1.23-1.21c.22,0,.45,0,.67,0H50Z"/></g></g></svg>