<?xml version="1.0" encoding="UTF-8"?>
<svg version="1.1" xmlns="http://www.w3.org/2000/svg" xmlns:xlink="http://www.w3.org/1999/xlink">
<defs>

</defs>
<symbol id="i-chevron"><path d="M.223 6.4L6.4.223a.763.763 0 011.078 0l.72.72a.763.763 0 010 1.077L3.3 6.937l4.9 4.917a.762.762 0 010 1.077l-.72.72a.763.763 0 01-1.078 0L.223 7.476a.763.763 0 010-1.076z" fill="#fff"/></symbol>
<symbol id="i-close"><path d="M17.778.808l1.414 1.414L11.414 10l7.778 7.778-1.414 1.414L10 11.414l-7.778 7.778-1.414-1.414L8.586 10 .808 2.222 2.222.808 10 8.586 17.778.808z" fill="#fff"/></symbol>
<symbol id="i-cv" viewBox="0 0 512 512" xmlns="http://www.w3.org/2000/svg"><path d="M124 80v322c0 7.7-6.3 14-14 14s-14-6.3-14-14V112H80c-17.7 0-32 14.3-32 32v288c0 17.7 14.3 32 32 32h353.1c17 0 30.9-13.8 30.9-30.9V80c0-17.7-14.3-32-32-32l-278 2c-17.7 0-30 12.3-30 30zm66 32h84c7.7 0 14 6.3 14 14s-6.3 14-14 14h-84c-7.7 0-14-6.3-14-14s6.3-14 14-14zm0 160h148c7.7 0 14 6.3 14 14s-6.3 14-14 14H190c-7.7 0-14-6.3-14-14s6.3-14 14-14zm196 108H190c-7.7 0-14-6.3-14-14s6.3-14 14-14h196c7.7 0 14 6.3 14 14s-6.3 14-14 14zm0-160H190c-7.7 0-14-6.3-14-14s6.3-14 14-14h196c7.7 0 14 6.3 14 14s-6.3 14-14 14z" fill="#FFF"/></symbol>
<symbol id="i-email" xmlns="http://www.w3.org/2000/svg" viewBox="0 0 491.52 491.52"><path d="M0 96.693v298.115l194.5-149.037zM11.998 85.916L245.722 265.06 479.449 85.916zM296.946 245.77L491.52 394.864V96.639z"/><path d="M283.933 255.777l-33.391 25.561a7.923 7.923 0 01-9.639 0l-33.386-25.561-195.53 149.827h467.474L283.933 255.777z"/></symbol>
<symbol id="i-github" viewBox="0 0 50 50" xmlns="http://www.w3.org/2000/svg"><path d="M23.999 0C10.747 0 .001 10.787.001 24.097 0 34.74 6.877 43.772 16.415 46.958c1.2.222 1.638-.522 1.638-1.16 0-.573-.021-2.088-.033-4.098-6.676 1.456-8.085-3.23-8.085-3.23-1.09-2.784-2.664-3.525-2.664-3.525-2.18-1.495.165-1.465.165-1.465 2.408.17 3.675 2.483 3.675 2.483 2.142 3.683 5.618 2.62 6.986 2.002.217-1.557.838-2.619 1.524-3.221-5.33-.609-10.932-2.675-10.932-11.908 0-2.63.934-4.781 2.47-6.466-.247-.61-1.071-3.059.234-6.377 0 0 2.016-.647 6.6 2.47 1.916-.534 3.968-.801 6.009-.811 2.039.01 4.092.277 6.009.811 4.581-3.117 6.593-2.47 6.593-2.47 1.309 3.318.486 5.767.238 6.377 1.539 1.685 2.468 3.835 2.468 6.466 0 9.256-5.612 11.293-10.958 11.89.861.744 1.629 2.213 1.629 4.462 0 3.22-.03 5.819-.03 6.61 0 .644.432 1.394 1.65 1.157 9.53-3.192 16.4-12.217 16.4-22.858C48 10.787 37.255 0 23.999 0"/></symbol>
<symbol id="i-linkedin" viewBox="0 0 48 48" xmlns="http://www.w3.org/2000/svg"><path d="M44 40h-9.725V25.938c0-3.68-1.52-6.193-4.866-6.193-2.558 0-3.981 1.696-4.643 3.33-.249.586-.21 1.403-.21 2.22V40h-9.634s.124-24.909 0-27.173h9.634v4.265c.57-1.865 3.648-4.526 8.56-4.526C39.211 12.566 44 16.474 44 24.89V40zM5.18 9.428h-.063C2.013 9.428 0 7.351 0 4.718 0 2.034 2.072 0 5.239 0c3.164 0 5.11 2.029 5.171 4.71 0 2.633-2.007 4.718-5.23 4.718zm-4.07 3.4h8.576V40H1.11V12.827z"/></symbol>
<symbol id="i-menu"><path d="M0 0h24v2H0zm0 7h24v2H0zm0 7h24v2H0z" fill="#fff"/></symbol>
</svg>