<?xml version="1.0" encoding="UTF-8"?>
<svg version="1.1" xmlns="http://www.w3.org/2000/svg" xmlns:xlink="http://www.w3.org/1999/xlink">
<defs>

</defs>
<symbol id="i-arrow-right" xmlns="http://www.w3.org/2000/svg" viewBox="0 0 24 24"><path fill="none" d="M0 0h24v24H0z"/><path d="M15 5l-1.41 1.41L18.17 11H2v2h16.17l-4.59 4.59L15 19l7-7-7-7z"/></symbol>
<symbol id="i-arrow" viewBox="0 0 66 38" xmlns="http://www.w3.org/2000/svg"><path d="M64.768 20.768a2.5 2.5 0 000-3.536l-15.91-15.91a2.5 2.5 0 00-3.536 3.536L59.464 19 45.323 33.142a2.5 2.5 0 003.536 3.536l15.91-15.91zM0 21.5h63v-5H0v5z"/></symbol>
<symbol id="i-chevron"><path d="M.223 6.4L6.4.223a.763.763 0 011.078 0l.72.72a.763.763 0 010 1.077L3.3 6.937l4.9 4.917a.762.762 0 010 1.077l-.72.72a.763.763 0 01-1.078 0L.223 7.476a.763.763 0 010-1.076z"/></symbol>
<symbol id="i-close"><path d="M17.778.808l1.414 1.414L11.414 10l7.778 7.778-1.414 1.414L10 11.414l-7.778 7.778-1.414-1.414L8.586 10 .808 2.222 2.222.808 10 8.586 17.778.808z" fill="#fff"/></symbol>
<symbol id="i-collab" viewBox="0 0 24 18"><path d="M3.632 9.263a2.421 2.421 0 10-2.421-2.421 2.423 2.423 0 002.421 2.421zm16.948 0a2.421 2.421 0 10-2.421-2.421 2.423 2.423 0 002.421 2.421zm1.211 1.211h-2.422a2.414 2.414 0 00-1.706.7 5.534 5.534 0 012.837 4.142H23a1.209 1.209 0 001.211-1.211V12.9a2.423 2.423 0 00-2.421-2.426zm-9.685 0a4.237 4.237 0 10-4.237-4.237 4.235 4.235 0 004.237 4.237zm2.905 1.211H14.7a5.85 5.85 0 01-5.183 0H9.2a4.359 4.359 0 00-4.358 4.358v1.09a1.816 1.816 0 001.816 1.816h10.9a1.816 1.816 0 001.816-1.816v-1.09a4.359 4.359 0 00-4.363-4.358zm-8.463-.507a2.414 2.414 0 00-1.706-.7H2.421A2.423 2.423 0 000 12.9v1.211a1.209 1.209 0 001.211 1.211H3.7a5.547 5.547 0 012.848-4.144z"/></symbol>
<symbol id="i-cv" viewBox="0 0 512 512" xmlns="http://www.w3.org/2000/svg"><path d="M124 80v322c0 7.7-6.3 14-14 14s-14-6.3-14-14V112H80c-17.7 0-32 14.3-32 32v288c0 17.7 14.3 32 32 32h353.1c17 0 30.9-13.8 30.9-30.9V80c0-17.7-14.3-32-32-32l-278 2c-17.7 0-30 12.3-30 30zm66 32h84c7.7 0 14 6.3 14 14s-6.3 14-14 14h-84c-7.7 0-14-6.3-14-14s6.3-14 14-14zm0 160h148c7.7 0 14 6.3 14 14s-6.3 14-14 14H190c-7.7 0-14-6.3-14-14s6.3-14 14-14zm196 108H190c-7.7 0-14-6.3-14-14s6.3-14 14-14h196c7.7 0 14 6.3 14 14s-6.3 14-14 14zm0-160H190c-7.7 0-14-6.3-14-14s6.3-14 14-14h196c7.7 0 14 6.3 14 14s-6.3 14-14 14z" fill="#FFF"/></symbol>
<symbol id="i-email" xmlns="http://www.w3.org/2000/svg" viewBox="0 0 491.52 491.52"><path d="M0 96.693v298.115l194.5-149.037zM11.998 85.916L245.722 265.06 479.449 85.916zM296.946 245.77L491.52 394.864V96.639z"/><path d="M283.933 255.777l-33.391 25.561a7.923 7.923 0 01-9.639 0l-33.386-25.561-195.53 149.827h467.474L283.933 255.777z"/></symbol>
<symbol id="i-external-link" xmlns="http://www.w3.org/2000/svg" viewBox="0 0 512 512"><path d="M432 320h-32a16 16 0 00-16 16v112H64V128h144a16 16 0 0016-16V80a16 16 0 00-16-16H48a48 48 0 00-48 48v352a48 48 0 0048 48h352a48 48 0 0048-48V336a16 16 0 00-16-16zM488 0H360c-21.37 0-32.05 25.91-17 41l35.73 35.73L135 320.37a24 24 0 000 34L157.67 377a24 24 0 0034 0l243.61-243.68L471 169c15 15 41 4.5 41-17V24a24 24 0 00-24-24z"/></symbol>
<symbol id="i-github" viewBox="0 0 50 50" xmlns="http://www.w3.org/2000/svg"><path d="M23.999 0C10.747 0 .001 10.787.001 24.097 0 34.74 6.877 43.772 16.415 46.958c1.2.222 1.638-.522 1.638-1.16 0-.573-.021-2.088-.033-4.098-6.676 1.456-8.085-3.23-8.085-3.23-1.09-2.784-2.664-3.525-2.664-3.525-2.18-1.495.165-1.465.165-1.465 2.408.17 3.675 2.483 3.675 2.483 2.142 3.683 5.618 2.62 6.986 2.002.217-1.557.838-2.619 1.524-3.221-5.33-.609-10.932-2.675-10.932-11.908 0-2.63.934-4.781 2.47-6.466-.247-.61-1.071-3.059.234-6.377 0 0 2.016-.647 6.6 2.47 1.916-.534 3.968-.801 6.009-.811 2.039.01 4.092.277 6.009.811 4.581-3.117 6.593-2.47 6.593-2.47 1.309 3.318.486 5.767.238 6.377 1.539 1.685 2.468 3.835 2.468 6.466 0 9.256-5.612 11.293-10.958 11.89.861.744 1.629 2.213 1.629 4.462 0 3.22-.03 5.819-.03 6.61 0 .644.432 1.394 1.65 1.157 9.53-3.192 16.4-12.217 16.4-22.858C48 10.787 37.255 0 23.999 0"/></symbol>
<symbol id="i-lightbulb" xmlns="http://www.w3.org/2000/svg" viewBox="0 0 24 24" style="-ms-transform:rotate(360deg);-webkit-transform:rotate(360deg)" transform="rotate(360)"><path d="M12 2a7 7 0 017 7c0 2.38-1.19 4.47-3 5.74V17a1 1 0 01-1 1H9a1 1 0 01-1-1v-2.26C6.19 13.47 5 11.38 5 9a7 7 0 017-7M9 21v-1h6v1a1 1 0 01-1 1h-4a1 1 0 01-1-1m3-17a5 5 0 00-5 5c0 2.05 1.23 3.81 3 4.58V16h4v-2.42c1.77-.77 3-2.53 3-4.58a5 5 0 00-5-5z" fill="#fff"/><path fill="rgba(0, 0, 0, 0)" d="M0 0h24v24H0z"/></symbol>
<symbol id="i-linkedin" viewBox="0 0 50 50" xmlns="http://www.w3.org/2000/svg"><path d="M44 40h-9.725V25.938c0-3.68-1.52-6.193-4.866-6.193-2.558 0-3.981 1.696-4.643 3.33-.249.586-.21 1.403-.21 2.22V40h-9.634s.124-24.909 0-27.173h9.634v4.265c.57-1.865 3.648-4.526 8.56-4.526C39.211 12.566 44 16.474 44 24.89V40zM5.18 9.428h-.063C2.013 9.428 0 7.351 0 4.718 0 2.034 2.072 0 5.239 0c3.164 0 5.11 2.029 5.171 4.71 0 2.633-2.007 4.718-5.23 4.718zm-4.07 3.4h8.576V40H1.11V12.827z"/></symbol>
<symbol id="i-location" xmlns="http://www.w3.org/2000/svg" viewBox="0 0 772.516 772.516"><g transform="translate(-68.028 -23.25)"><path d="M454.278 160.512c-99.484 0-179.81 80.41-179.81 179.59 0 31.186 7.969 60.528 21.938 86.094l157.88 264.31 157.88-264.31c13.969-25.566 21.938-54.908 21.938-86.094 0-99.184-80.328-179.59-179.81-179.59zm-2 104.37c.667-.017 1.329 0 2 0 42.975 0 77.812 34.838 77.812 77.813s-34.838 77.812-77.812 77.812c-42.975 0-77.812-34.838-77.812-77.812 0-42.303 33.766-76.747 75.812-77.813z"/><circle cx="454.286" cy="409.509" r="368.758" fill="none" stroke="#fff" stroke-width="35" stroke-linejoin="round"/></g></symbol>
<symbol id="i-menu"><path d="M0 0h24v2H0zm0 7h24v2H0zm0 7h24v2H0z" fill="#fff"/></symbol>
<symbol id="i-quote-left-solid" xmlns="http://www.w3.org/2000/svg" viewBox="0 0 448 512"><!--! Font Awesome Pro 6.1.1 by @fontawesome - https://fontawesome.com License - https://fontawesome.com/license (Commercial License) Copyright 2022 Fonticons, Inc.--><path d="M96 224c-11.28 0-21.95 2.3-32 5.9V224c0-35.3 28.7-64 64-64 17.67 0 32-14.33 32-32s-14.3-32-32-32C57.42 96 0 153.4 0 224v96c0 53.02 42.98 96 96 96s96-42.98 96-96-43-96-96-96zm256 0c-11.28 0-21.95 2.305-32 5.879V224c0-35.3 28.7-64 64-64 17.67 0 32-14.33 32-32s-14.33-32-32-32c-70.58 0-128 57.42-128 128v96c0 53.02 42.98 96 96 96s96-42.98 96-96-43-96-96-96z"/></symbol>
<symbol id="i-quote-right-solid" xmlns="http://www.w3.org/2000/svg" viewBox="0 0 448 512"><!--! Font Awesome Pro 6.1.1 by @fontawesome - https://fontawesome.com License - https://fontawesome.com/license (Commercial License) Copyright 2022 Fonticons, Inc.--><path d="M96 96c-53.02 0-96 42.1-96 96s42.98 96 96 96c11.28 0 21.95-2.305 32-5.879V288c0 35.3-28.7 64-64 64-17.67 0-32 14.33-32 32s14.33 32 32 32c70.58 0 128-57.42 128-128v-96c0-53.9-43-96-96-96zm352 96c0-53.02-42.98-96-96-96s-96 42.98-96 96 42.98 96 96 96c11.28 0 21.95-2.305 32-5.879V288c0 35.3-28.7 64-64 64-17.67 0-32 14.33-32 32s14.33 32 32 32c70.58 0 128-57.42 128-128v-96z"/></symbol>
<symbol id="i-responsive" xmlns="http://www.w3.org/2000/svg" viewBox="0 0 24 24" style="-ms-transform:rotate(360deg);-webkit-transform:rotate(360deg)" transform="rotate(360)"><path d="M22 17h-4v-7h4m1-2h-6a1 1 0 00-1 1v10a1 1 0 001 1h6a1 1 0 001-1V9a1 1 0 00-1-1M4 6h18V4H4a2 2 0 00-2 2v11H0v3h14v-3H4V6z" fill="#fff"/><path fill="rgba(0, 0, 0, 0)" d="M0 0h24v24H0z"/></symbol>
<symbol id="i-rocket" xmlns="http://www.w3.org/2000/svg" viewBox="0 0 512 512" style="-ms-transform:rotate(360deg);-webkit-transform:rotate(360deg)" transform="rotate(360)"><path d="M477.64 38.26a4.75 4.75 0 00-3.55-3.66c-58.57-14.32-193.9 36.71-267.22 110a317 317 0 00-35.63 42.1c-22.61-2-45.22-.33-64.49 8.07C52.38 218.7 36.55 281.14 32.14 308a9.64 9.64 0 0010.55 11.2l87.31-9.63a194.1 194.1 0 001.19 19.7 19.53 19.53 0 005.7 12L170.7 375a19.59 19.59 0 0012 5.7 193.53 193.53 0 0019.59 1.19l-9.58 87.2a9.65 9.65 0 0011.2 10.55c26.81-4.3 89.36-20.13 113.15-74.5 8.4-19.27 10.12-41.77 8.18-64.27a317.66 317.66 0 0042.21-35.64C441 232.05 491.74 99.74 477.64 38.26zM294.07 217.93a48 48 0 1167.86 0 47.95 47.95 0 01-67.86 0z" fill="#fff"/><path d="M168.4 399.43c-5.48 5.49-14.27 7.63-24.85 9.46-23.77 4.05-44.76-16.49-40.49-40.52 1.63-9.11 6.45-21.88 9.45-24.88a4.37 4.37 0 00-3.65-7.45 60 60 0 00-35.13 17.12C50.22 376.69 48 464 48 464s87.36-2.22 110.87-25.75A59.69 59.69 0 00176 403.09c.37-4.18-4.72-6.67-7.6-3.66z" fill="#fff"/><path fill="rgba(0, 0, 0, 0)" d="M0 0h512v512H0z"/></symbol>
<symbol id="i-school" xmlns="http://www.w3.org/2000/svg" viewBox="0 0 24 24"><path d="M0 0h24v24H0z" fill="none"/><path d="M5 13.18v4L12 21l7-3.82v-4L12 17l-7-3.82zM12 3L1 9l11 6 9-4.91V17h2V9L12 3z"/></symbol>
<symbol id="i-speedometer" xmlns="http://www.w3.org/2000/svg" viewBox="0 0 24 24" style="-ms-transform:rotate(360deg);-webkit-transform:rotate(360deg)" transform="rotate(360)"><path d="M12 16a3 3 0 01-3-3c0-1.12.61-2.1 1.5-2.61l9.71-5.62-5.53 9.58c-.5.98-1.51 1.65-2.68 1.65m0-13c1.81 0 3.5.5 4.97 1.32l-2.1 1.21C14 5.19 13 5 12 5a8 8 0 00-8 8c0 2.21.89 4.21 2.34 5.65h.01c.39.39.39 1.02 0 1.41-.39.39-1.03.39-1.42.01A9.969 9.969 0 012 13 10 10 0 0112 3m10 10c0 2.76-1.12 5.26-2.93 7.07-.39.38-1.02.38-1.41-.01a.996.996 0 010-1.41A7.95 7.95 0 0020 13c0-1-.19-2-.54-2.9L20.67 8C21.5 9.5 22 11.18 22 13z" fill="#fff"/><path fill="rgba(0, 0, 0, 0)" d="M0 0h24v24H0z"/></symbol>
<symbol id="i-study" xmlns="http://www.w3.org/2000/svg" viewBox="0 0 53.25 43.07"><g data-name="Layer 2"><g data-name="Layer 1"><path d="M0 22.06a15.64 15.64 0 011-2.67 6.94 6.94 0 016.91-3.63 7.54 7.54 0 017.31 7.74v3.66h18.1a3.23 3.23 0 013.27 2.09 3.16 3.16 0 01-3.18 4.21H15.82a3.93 3.93 0 01-3.24-1.41c-1.74-2-3.56-3.92-5.35-5.88-.13-.14-.25-.34-.41-.39a.77.77 0 00-.64.05c-.12.11-.1.42-.08.63s.17.22.26.32l5.79 6.33a3.87 3.87 0 003 1.33v8.61H0zM22.3 7.86A7.87 7.87 0 1114.42 0a7.85 7.85 0 017.88 7.86z"/><path d="M34.39 37.13h-11a1.42 1.42 0 01-1.59-1.4 1.38 1.38 0 011.26-1.4H44a.66.66 0 00.75-.55c1.88-5.54 3.79-11.07 5.68-16.6a1.55 1.55 0 011-1.15 1.41 1.41 0 011.73 1.78c-.56 1.66-1.13 3.31-1.69 5q-2.23 6.51-4.46 13a1.61 1.61 0 01-1.87 1.35zM50 38.14v3.67H17.7c-1.23 0-1.72-.5-1.72-1.74a5.93 5.93 0 010-.73 1.35 1.35 0 011.23-1.21H50z"/></g></g></symbol>
</svg>